<svg height='100px' width='100px' preserveAspectRatio="xMidYMid meet" viewBox="0 0 100 100"><g><path d="M94.218,50.756c-0.198-0.237-0.516-0.406-0.887-0.402l-14.893,0.021c0,0-12.972,0.02-14.315,0.02   c-0.072,0.002-0.17-0.021-0.316-0.024c-0.056,0-0.12,0.004-0.186,0.026c-1.161-0.002-3.057-0.005-5.084-0.002   c-4.108,0.006-8.731,0.021-8.731,0.021s-3.147,0.006-6.462,0.009l-7.471,0.015c-0.083-0.002-0.371-0.025-0.599-0.026   c-0.101,0.005-0.176-0.004-0.279,0.026c-1.156-0.004-3.061-0.004-5.09-0.002c-4.11,0.006-8.734,0.022-8.734,0.022   S8.2,50.477,6.856,50.477c-0.448-0.003-0.819,0.194-1.042,0.473c-0.229,0.28-0.325,0.625-0.325,0.956   c-0.003,0.511,0.255,1.087,0.859,1.169c0.792,0.103,1.314,0.375,1.784,1.454c0.238,0.565,0.796,2.064,1.478,3.428   c0.343,0.681,0.715,1.329,1.109,1.825c0.396,0.486,0.81,0.863,1.338,0.876c1.441-0.002,5.092-0.005,5.092-0.005l0.061-0.003   l0.059-0.022c0.057-0.025,0.983-0.476,1.773-2.266c0.391-0.878,0.82-2.079,1.247-3.054c0.212-0.482,0.424-0.913,0.618-1.202   c0.096-0.145,0.187-0.254,0.256-0.313c0.074-0.065,0.109-0.066,0.109-0.066c0.136-0.041,0.569,0.344,0.902,0.99   c0.345,0.63,0.653,1.459,0.842,2.156c0.203,0.755,0.595,1.669,1.049,2.415c0.228,0.376,0.473,0.706,0.727,0.956   c0.257,0.249,0.524,0.437,0.864,0.443l5.416-0.008l0.07-0.047c0.03-0.02,1.525-0.977,2.322-3.273c0.606-1.8,1.222-3.698,1.98-4.233   c0.543,0.164,0.951,0.505,1.32,1.361c0.238,0.566,0.797,2.064,1.479,3.428c0.344,0.682,0.716,1.33,1.109,1.825   c0.396,0.487,0.809,0.863,1.338,0.878l5.155-0.012l0.059-0.023c0.056-0.023,0.985-0.47,1.773-2.262   c0.391-0.883,0.818-2.081,1.246-3.055c0.212-0.484,0.426-0.914,0.617-1.202c0.098-0.144,0.187-0.252,0.259-0.312   c0.072-0.064,0.105-0.064,0.107-0.066c0.135-0.039,0.57,0.344,0.901,0.989c0.347,0.632,0.656,1.457,0.844,2.157   c0.203,0.752,0.595,1.669,1.051,2.414c0.226,0.374,0.469,0.707,0.725,0.958c0.255,0.245,0.523,0.437,0.86,0.44   c0.82,0,5.335-0.006,5.335-0.006l0.085-0.001l0.065-0.046c0.036-0.021,1.529-0.979,2.326-3.274c0.604-1.801,1.223-3.698,1.98-4.235   c0.542,0.172,0.952,0.506,1.319,1.364c0.237,0.563,0.796,2.066,1.479,3.426c0.344,0.683,0.716,1.332,1.113,1.828   c0.393,0.487,0.807,0.863,1.335,0.875c1.439-0.003,5.093-0.007,5.093-0.007l0.061-0.001l0.058-0.023   c0.059-0.024,0.988-0.475,1.775-2.265c0.388-0.88,0.821-2.078,1.246-3.052c0.212-0.485,0.425-0.915,0.616-1.204   c0.095-0.146,0.188-0.254,0.26-0.312c0.069-0.065,0.104-0.067,0.104-0.067c0.137-0.042,0.569,0.342,0.902,0.989   c0.349,0.63,0.653,1.458,0.844,2.157c0.202,0.755,0.595,1.668,1.051,2.414c0.227,0.374,0.472,0.706,0.726,0.956   c0.255,0.246,0.523,0.438,0.86,0.443c0.82-0.004,5.334-0.009,5.334-0.009l0.084-0.001l0.069-0.044   c0.031-0.021,1.527-0.979,2.321-3.275c0.387-1.109,0.747-2.259,1.161-3.103c0.42-0.861,0.876-1.333,1.352-1.318   c0.4,0.002,0.742-0.155,0.956-0.399c0.216-0.24,0.312-0.551,0.312-0.855C94.509,51.3,94.415,50.997,94.218,50.756z"></path><path d="M92.648,47.594c-0.217-0.837-1.846-4.64-2.425-5.996c-0.293-0.672-0.541-1.238-0.982-1.656   c-0.449-0.422-1.075-0.635-1.977-0.628l-66.204,0.095c0,0-6.726,0.009-8.456,0.012c-0.902-0.002-1.531,0.211-1.976,0.635   c-0.443,0.421-0.688,0.985-0.978,1.66c-0.579,1.357-2.194,5.167-2.406,6.001c-0.032,0.129-0.05,0.248-0.051,0.362   c-0.021,0.355,0.256,0.671,0.573,0.751c0.312,0.098,0.7,0.109,1.2,0.109c1.154-0.001,12.3-0.017,12.3-0.017l69.663-0.103   c0.502-0.002,0.884-0.015,1.203-0.117c0.316-0.075,0.591-0.395,0.565-0.746C92.697,47.84,92.679,47.721,92.648,47.594z"></path></g></svg>
